<?xml version="1.0" encoding="utf-8"?>
<!-- Generator: Adobe Illustrator 18.0.0, SVG Export Plug-In . SVG Version: 6.00 Build 0)  -->
<!DOCTYPE svg PUBLIC "-//W3C//DTD SVG 1.0//EN" "http://www.w3.org/TR/2001/REC-SVG-20010904/DTD/svg10.dtd">
<svg version="1.0" id="Layer_1" xmlns="http://www.w3.org/2000/svg" xmlns:xlink="http://www.w3.org/1999/xlink" x="0px" y="0px"
	 viewBox="0 0 24.7 24.7" enable-background="new 0 0 24.7 24.7" xml:space="preserve">
<g>
	<defs>
		<path id="SVGID_1_" d="M10.1,12.4L1,21.5c-0.6,0.6-0.6,1.6,0,2.3c0.6,0.6,1.6,0.6,2.3,0l9.1-9.1l9.1,9.1c0.6,0.6,1.6,0.6,2.3,0
			c0.6-0.6,0.6-1.6,0-2.3l-9.1-9.1l9.1-9.1c0.6-0.6,0.6-1.6,0-2.3c-0.6-0.6-1.6-0.6-2.3,0l-9.1,9.1L3.2,1C2.6,0.4,1.6,0.3,1,1
			C0.3,1.6,0.3,2.6,1,3.2L10.1,12.4z"/>
	</defs>
	<clipPath id="SVGID_2_">
		<use xlink:href="#SVGID_1_"  overflow="visible"/>
	</clipPath>
	<rect x="-7.6" y="-7.6" clip-path="url(#SVGID_2_)" fill="#FFFFFF" width="39.8" height="39.8"/>
</g>
</svg>
